<svg xmlns="http://www.w3.org/2000/svg" width="214.385" height="80" viewBox="0 0 214.385 80"><defs><style>.a{fill:#ef4b74;}.b{fill:#e5d4ed;}</style></defs><g transform="translate(0.139)"><path class="a" d="M50.96,33.643a13.357,13.357,0,0,0-3.786-.286,19.955,19.955,0,0,0-2.857.5,10.443,10.443,0,0,0-1.429.357A13.589,13.589,0,0,0,38.6,36.429c-.286.214-.286.214,0,.5a47.9,47.9,0,0,1,5,4.286c.5.429.857.929,1.357,1.357a21.564,21.564,0,0,1,2.286,2.786c-.286-.214-.643-.5-.929-.714L45.246,44c-.357-.214-.714-.5-1.143-.714-1.071-.5-2.214-1.071-3.357-1.5-1-.429-2.071-.786-3.143-1.143-.643-.214-1.286-.357-2-.571-.214-.071-.286.071-.286.214V40.5c-.071.929,0,1.929-.143,2.857A9.416,9.416,0,0,1,32.6,48.786a7.645,7.645,0,0,1-2.643,1.571,14.154,14.154,0,0,1-6,.643c-1-.071-2-.214-2.929-.357l-1.286-.214a1.216,1.216,0,0,0-.5.071,24.343,24.343,0,0,0-4.071,3.071,6.773,6.773,0,0,0-2,3.071,2.912,2.912,0,0,0,.286,2.429,5.869,5.869,0,0,0,2.214,2.357C16.532,62,17.46,62.5,18.317,63c-.429,0-.786.071-1.214.071a35.461,35.461,0,0,1-3.929-.143A19.805,19.805,0,0,1,7.817,61.5a18.907,18.907,0,0,1-7.571-6l-.214-.214A.64.64,0,0,1-.04,54.5c.857-1.714,1.714-3.357,2.5-5.071.357-.786.571-1.571.857-2.357,0-.071.071-.143.143-.214l1.071.857c.429.286.857.5,1.286.786a.544.544,0,0,0,.643-.071,34.131,34.131,0,0,0,3.214-3.214,10.545,10.545,0,0,0,1.857-2.786,5.675,5.675,0,0,0,.429-1.571.7.7,0,0,0-.286-.643,10.072,10.072,0,0,0-1-1.286c.857-.857,1.714-1.786,2.571-2.714a9.12,9.12,0,0,0,2.071-3.357A4.4,4.4,0,0,0,15.46,31.5a1.04,1.04,0,0,1,.357-.857c1.214-1.143,2.5-2.286,3.714-3.429,1.429-1.357,2.929-2.786,4.357-4.143L30.1,16.857c1.714-1.786,3.5-3.571,5.214-5.429s3.429-3.714,5.143-5.643q2.25-3,4.714-5.786h0V.071c0,.071,0,.071-.071.143,0,.071-.071.143-.143.214-2.071,3.143-4.143,6.286-6.214,9.357-.071.071-.143.143-.143.214-3.071,4.714-9.429,15.857-9.143,15.929a6.033,6.033,0,0,1,1.214.357A18.72,18.72,0,0,0,36.96,27a13.931,13.931,0,0,0,4.143-.929A13.384,13.384,0,0,0,46.174,22.5c.429-.5.857-1,1.286-1.571a3.32,3.32,0,0,1-.214.643,36.682,36.682,0,0,1-2.714,4.571,24.241,24.241,0,0,1-3.857,4.643,3.3,3.3,0,0,0-.5.5.221.221,0,0,0-.071.143.154.154,0,0,0,.143.143c.429-.071.857-.071,1.214-.143a6.238,6.238,0,0,1,2.571,0c.5.071,1,.143,1.429.214a15.6,15.6,0,0,1,4.357,1.429c.357.214.786.357,1.143.571Zm-33.714,7c.786.071.786.071,1.929-.5,2.571-1.286,4.143-3.286,4-6.286a20.611,20.611,0,0,0-.286-2.071A.307.307,0,0,0,22.6,31.5c-.071,0-.214.143-.286.286-.429.786-.857,1.571-1.286,2.286C19.817,36.214,18.532,38.357,17.246,40.643Z"/><path class="a" d="M29.028,96.686c-.071-.143-.143-.214-.214-.357a9.248,9.248,0,0,1-.429-3.429,10.687,10.687,0,0,1,.429-2.071,19.635,19.635,0,0,1,1.071-2.571c.429-.929,1-1.786,1.5-2.643.571-.857,1.143-1.714,1.714-2.5l4.5-5.571c1.071-1.286,2.214-2.571,3.286-3.857a52.578,52.578,0,0,0,4.286-5.571A15.847,15.847,0,0,0,46.6,65.186a4.05,4.05,0,0,0,.071-2.071,2.754,2.754,0,0,0-1.643-1.929c-.5-.286-.5-.286-.357-.714.143-.714.214-1.357.357-2.071h.214c1,.357,1.929.714,2.929,1.071a3.314,3.314,0,0,1,1.571,1,2.887,2.887,0,0,1,.643,1.786,10.11,10.11,0,0,1-.143,2.071,14.437,14.437,0,0,1-.786,2.286A12.816,12.816,0,0,1,48.028,69.4c-.643,1.071-1.357,2.143-2.071,3.143-.929,1.214-1.857,2.429-2.857,3.571s-2.071,2.214-3.071,3.357A71.2,71.2,0,0,1,34.1,84.9a18.263,18.263,0,0,0-3.857,4.286A8.278,8.278,0,0,0,29.1,92.043a8.873,8.873,0,0,0-.286,2.357,5.6,5.6,0,0,0,.286,1.857.906.906,0,0,1,.071.429Z" transform="translate(-8.139 -16.686)"/><path class="b" d="M55.814,62.2c.643.357,1.214.571,1.857.929,1.429.786,2.857,1.643,4.357,2.429.286.143.357.286.214.571-.5.786-.929,1.571-1.429,2.286-1.143,1.5-2.357,2.929-3.643,4.357a68.151,68.151,0,0,1-5.143,5c-1.643,1.429-3.286,2.857-5,4.214-1.357,1.143-2.786,2.143-4.214,3.286a6.178,6.178,0,0,1-.714.5c.071-.071.071-.143.143-.214,1.643-1.786,3.429-3.571,5-5.357,1.214-1.357,2.286-2.857,3.429-4.286.857-1.143,1.643-2.357,2.429-3.571.571-.929,1-1.857,1.5-2.786a21.646,21.646,0,0,0,1.143-3c.071-.214.071-.429.143-.714l.214-1.5c0-.286-.071-.5-.071-.786A4.159,4.159,0,0,1,55.814,62.2Z" transform="translate(-12.068 -17.771)"/><path class="b" d="M67.314,60.507A52.03,52.03,0,0,0,56.6,50.65c.714-.286,1.286-.643,2-.857a18.139,18.139,0,0,1,2.643-.714,11.72,11.72,0,0,1,3.143-.286,1.269,1.269,0,0,1,.714.286,11.052,11.052,0,0,1,1.714,2.357c.357.786.643,1.571.929,2.357a3.342,3.342,0,0,1,.143,1.214v2.5a17.452,17.452,0,0,1-.5,2.786C67.386,60.435,67.386,60.435,67.314,60.507Z" transform="translate(-16.211 -13.935)"/><g transform="translate(61.46 29.357)"><path class="a" d="M86.1,45.957h7.214V62.886a4.862,4.862,0,0,0,4.857-4.857V45.957H100.6a4.862,4.862,0,0,0,4.857-4.857H90.886A4.847,4.847,0,0,0,86.1,45.957Z" transform="translate(-86.1 -41.1)"/><path class="a" d="M124.657,45.957h2.571a4.821,4.821,0,0,0,4.643-4.857h-7.214a9.052,9.052,0,0,0-2.429.286,11.206,11.206,0,0,0-6.643,4.571,10.844,10.844,0,0,0-1.786,6.071,11.194,11.194,0,0,0,1.786,6.071,10.851,10.851,0,0,0,9.071,4.857h2.357a4.862,4.862,0,0,0,4.857-4.857h-7.214a6.693,6.693,0,0,1-2.429-.5,6.133,6.133,0,0,1-3.143-3.143H122.8a4.862,4.862,0,0,0,4.857-4.857h-8.571A5.952,5.952,0,0,1,124.657,45.957Z" transform="translate(-94.014 -41.1)"/><path class="a" d="M152.857,49.529h-4.214a1.786,1.786,0,1,1,0-3.571h4.214a4.862,4.862,0,0,0,4.857-4.857h-9.071a6.643,6.643,0,1,0,0,13.286h4.214a1.786,1.786,0,0,1,0,3.571H142a4.862,4.862,0,0,0,4.857,4.857h6.071a6.63,6.63,0,0,0,6.643-6.643A6.786,6.786,0,0,0,152.857,49.529Z" transform="translate(-102.071 -41.1)"/><path class="a" d="M169.757,41.1a4.862,4.862,0,0,0-4.857,4.857h7.214V62.886a4.862,4.862,0,0,0,4.857-4.857V45.957H179.4a4.862,4.862,0,0,0,4.857-4.857h-14.5Z" transform="translate(-108.614 -41.1)"/></g><g transform="translate(140.532 29.357)"><path class="b" d="M213.014,50.886h-9.429q-.75,0-.857-.214a1.241,1.241,0,0,1-.214-.857v-5.5q0-.75.214-.857a1.241,1.241,0,0,1,.857-.214h5.357a.859.859,0,0,1,1.071,1.071v3.5h5.643V43.886a2.462,2.462,0,0,0-2.786-2.786H199.586a2.462,2.462,0,0,0-2.786,2.786v6.286a2.462,2.462,0,0,0,2.786,2.786h9.5q.75,0,.857.214a1.241,1.241,0,0,1,.214.857v5.714q0,.75-.214.857a1.241,1.241,0,0,1-.857.214h-5.357q-.75,0-.857-.214a1.241,1.241,0,0,1-.214-.857v-3.5h-5.714V60.1a2.462,2.462,0,0,0,2.786,2.786h13.286A2.462,2.462,0,0,0,215.8,60.1V53.6C215.8,51.814,214.871,50.886,213.014,50.886Z" transform="translate(-196.8 -41.1)"/><rect class="b" width="5.786" height="21.714" transform="translate(24.357)"/><path class="b" d="M243.9,43.171h7.071V62.886h5.571V43.171h7.143V41.1H243.9Z" transform="translate(-210.257 -41.1)"/><path class="b" d="M281.857,60.814V52.743h9.429V50.671h-9.429v-7.5h10.857V41.1H276V62.886h17.143V60.814Z" transform="translate(-219.429 -41.1)"/></g></g></svg>